<?xml version="1.0" standalone="no"?>
<!DOCTYPE svg PUBLIC "-//W3C//DTD SVG 20010904//EN"
 "http://www.w3.org/TR/2001/REC-SVG-20010904/DTD/svg10.dtd">
<svg version="1.0" xmlns="http://www.w3.org/2000/svg"
 width="344.000000pt" height="344.000000pt" viewBox="0 0 344.000000 344.000000"
 preserveAspectRatio="xMidYMid meet">

<g transform="translate(0.000000,344.000000) scale(0.100000,-0.100000)"
fill="#000000" stroke="none">
<path d="M1489 3285 c-356 -58 -635 -200 -884 -450 -229 -229 -367 -482 -436
-805 -20 -90 -23 -134 -23 -310 0 -226 14 -322 75 -505 154 -460 531 -836 994
-993 207 -71 479 -99 691 -72 609 76 1122 492 1313 1066 61 182 75 278 75 504
0 176 -3 220 -23 310 -69 323 -207 578 -435 805 -229 228 -495 373 -805 436
-128 27 -420 34 -542 14z m541 -153 c124 -29 201 -57 325 -117 346 -167 612
-471 734 -840 53 -161 71 -276 71 -455 0 -179 -18 -294 -71 -455 -73 -219
-184 -400 -349 -565 -199 -199 -431 -326 -714 -392 -129 -30 -397 -37 -538
-13 -209 34 -436 128 -611 252 -104 74 -256 226 -330 330 -124 175 -218 402
-253 611 -20 127 -15 416 11 527 98 431 365 784 747 985 109 57 297 122 418
144 124 22 443 15 560 -12z"/>
<path d="M830 1720 l0 -690 890 0 890 0 0 690 0 690 -890 0 -890 0 0 -690z
m1650 516 c0 -31 -20 -50 -342 -332 -237 -206 -356 -303 -384 -313 -40 -14
-44 -14 -87 10 -25 13 -195 154 -376 313 -311 272 -331 291 -331 323 l0 33
760 0 760 0 0 -34z m-1334 -378 c96 -83 173 -155 172 -159 -4 -9 -344 -279
-352 -279 -3 0 -6 133 -6 295 0 162 3 295 6 295 3 0 84 -68 180 -152z m1334
-143 c0 -162 -3 -295 -6 -295 -11 0 -349 272 -349 281 0 11 335 307 348 308 4
1 7 -132 7 -294z m-866 -246 c55 -25 157 -25 212 0 22 10 72 46 111 79 l71 61
236 -186 c224 -177 236 -188 236 -220 l0 -33 -760 0 -760 0 0 33 c0 31 14 44
236 219 l236 187 71 -61 c39 -33 89 -69 111 -79z"/>
</g>
</svg>
